<svg display="none" xmlns="http://www.w3.org/2000/svg">
    <symbol id="film" viewBox="0 0 24 24">
        <path d="M19.82 2H4.18C2.97602 2 2 2.97602 2 4.18V19.82C2 21.024 2.97602 22 4.18 22H19.82C21.024 22 22 21.024 22 19.82V4.18C22 2.97602 21.024 2 19.82 2Z" stroke="#818181" stroke-width="2" stroke-linecap="round" stroke-linejoin="round"/>
        <path d="M7 2V22" stroke="#818181" stroke-width="2" stroke-linecap="round" stroke-linejoin="round"/>
        <path d="M17 2V22" stroke="#818181" stroke-width="2" stroke-linecap="round" stroke-linejoin="round"/>
        <path d="M2 12H22" stroke="#818181" stroke-width="2" stroke-linecap="round" stroke-linejoin="round"/>
        <path d="M2 7H7" stroke="#818181" stroke-width="2" stroke-linecap="round" stroke-linejoin="round"/>
        <path d="M2 17H7" stroke="#818181" stroke-width="2" stroke-linecap="round" stroke-linejoin="round"/>
        <path d="M17 17H22" stroke="#818181" stroke-width="2" stroke-linecap="round" stroke-linejoin="round"/>
        <path d="M17 7H22" stroke="#818181" stroke-width="2" stroke-linecap="round" stroke-linejoin="round"/>
    </symbol>
    <symbol id="search" viewBox="0 0 32 32">
        <path fill="none" stroke="#fff" style="stroke: var(--color3, #fff)" stroke-linejoin="round" stroke-linecap="round" stroke-miterlimit="4" stroke-width="2.6667" d="M14.667 25.333c5.891 0 10.667-4.776 10.667-10.667s-4.776-10.667-10.667-10.667c-5.891 0-10.667 4.776-10.667 10.667s4.776 10.667 10.667 10.667z"></path>
<path fill="none" stroke="#fff" style="stroke: var(--color3, #fff)" stroke-linejoin="round" stroke-linecap="round" stroke-miterlimit="4" stroke-width="2.6667" d="M28 28l-5.8-5.8"></path>

    </symbol>
    <symbol id="favorite" viewBox="0 0 14 13">
        <path d="M7 12.88L6.02 11.9C2.38 8.68 0 6.51 0 3.85C0 1.68 1.68 0 3.85 0C5.04 0 6.23 0.56 7 1.47C7.77 0.56 8.96 0 10.15 0C12.32 0 14 1.68 14 3.85C14 6.51 11.62 8.68 7.98 11.9L7 12.88Z" fill="#FF6B08"/>
    </symbol>
</svg>
